<svg width="420" height="74" viewBox="0 0 420 74">
																																																								<path class="phl-icon" d="m18.282 0a40.458 40.458 0 0 0-14.364 16.411 55.215 55.215 0 0 0 12.253 8.2211 25.812 25.812 0 0 0 20.487 34.679v-36.496a48.306 48.306 0 0 1-7.303-1.1288v27.124a18.61 18.61 0 0 1-3.6801-26.581v-1.5622a47.63 47.63 0 0 1-12.317-6.0521 32.752 32.752 0 0 1 4.8917-5.4669 40.165 40.165 0 0 0 22.029 6.5465 40.196 40.196 0 0 0 27.819-11.127 40.64 40.64 0 0 0-5.7585-4.5686 32.923 32.923 0 0 1-22.029 8.422 32.903 32.903 0 0 1-22.029-8.422zm54.609 10.036a47.579 47.579 0 0 1-17.964 10.632v1.5622a18.59 18.59 0 0 1-3.6525 26.581v-27.124a48.174 48.174 0 0 1-7.2932 1.1288v36.496a25.832 25.832 0 0 0 20.477-34.669 55.154 55.154 0 0 0 12.246-8.2211 39.56 39.56 0 0 0-3.814-6.385zm-71.626 13.679a40.347 40.347 0 0 0 35.394 50.202v-7.303a33.054 33.054 0 0 1-29.403-32.851 33.599 33.599 0 0 1 0.45508-5.4669 61.529 61.529 0 0 1-6.446-4.5804zm78.092 0a62.639 62.639 0 0 1-6.446 4.5804 33.609 33.609 0 0 1 0.44524 5.4669 33.044 33.044 0 0 1-29.394 32.851v7.303a40.347 40.347 0 0 0 35.394-50.202z"></path>
																																																									<path class="phl-letter" d="m124.26 54.307h-14.121v-31.451a18.307 18.307 0 0 1 0.29252-4.3978h-10.218a13.768 13.768 0 0 1 0.81703 5.2754v35.616h28.404l0.52451-5.81a23.744 23.744 0 0 1-5.699 0.76659"></path>
																																																										<path class="phl-letter" d="m158.33 54.307h-14.121v-13.375h10.389a25.409 25.409 0 0 1 5.81 0.69599v-6.506a22.695 22.695 0 0 1-5.81 0.75651h-10.389v-12.316h12.679a21.919 21.919 0 0 1 5.7495 0.75651c-0.18157-1.9367-0.35304-3.9238-0.59512-5.7999h-27.769a14.575 14.575 0 0 1 0.76659 5.2754v35.556h28.455l0.52451-5.81a20.97 20.97 0 0 1-5.6889 0.76659"></path>
																																																											<path class="phl-letter" d="m189.5 36.433-4.9829-2.7537c-4.2869-2.4006-6.052-3.7523-6.052-6.2134a4.771 4.771 0 0 1 4.9829-4.6399c4.5794 0 7.8072 1.5836 12.104 6.5665h1.5231l-0.70607-8.4426a27.88 27.88 0 0 0-13.113-3.2278c-8.2106 0-13.496 5.2249-13.496 11.317 0 5.4065 2.8747 8.3922 9.3302 11.912l5.1039 2.8243c4.0347 2.1687 5.3359 3.8128 5.3359 6.0521 0 2.7033-2.2292 5.0434-5.6284 5.0434-4.5189 0-9.3908-2.8747-13.113-6.5766h-1.4122l0.64555 8.6847a33.811 33.811 0 0 0 14.121 3.026c8.3922 0 14.121-5.0434 14.121-11.499 0-5.1039-2.4612-8.5637-8.8057-12.104"></path>
																																																												<path class="phl-letter" d="m243.22 23.502a24.208 24.208 0 0 1 5.6889 0.75651l-0.58503-5.7999h-35.737l-0.52451 5.7999a23.825 23.825 0 0 1 5.6889-0.75651h8.0694v35.848h9.7942a27.234 27.234 0 0 1-0.58503-4.4583v-31.39z"></path>
																																																													<path class="phl-letter" d="m271.93 17.753c-14.121 0-22.937 9.2692-22.937 21.121 0 12.104 8.6862 21.182 22.464 21.182 14.121 0 22.997-9.3298 22.997-21.121 0-12.104-8.7958-21.182-22.524-21.182zm-0.29157 5.0434c8.0392 0 13.113 6.6275 13.113 16.2s-5.1039 15.957-13.113 15.957h-0.0611c-7.8677 0-12.971-6.627-12.971-16.139s4.9928-16.019 13.032-16.019z"></path>
																																																														<path class="phl-letter" d="m311.56 59.351a24.481 24.481 0 0 1-0.58503-5.3964v-31.037a24.733 24.733 0 0 1 0.23199-4.3978h-10.167a14.575 14.575 0 0 1 0.7666 5.2754v35.556z"></path>
																																																															<path class="phl-letter" d="m339.99 36.433-4.993-2.7537c-4.2768-2.4006-6.1025-3.7523-6.1025-6.2134a4.771 4.771 0 0 1 4.993-4.6399c4.5794 0 7.7971 1.5836 12.104 6.5665h1.5231l-0.70607-8.4426a27.85 27.85 0 0 0-13.113-3.2278c-8.2106 0-13.496 5.2249-13.496 11.317 0 5.4065 2.8848 8.3922 9.3302 11.912l5.1039 2.8243c4.0347 2.1687 5.346 3.8128 5.346 6.0521 0 2.7033-2.2292 5.0434-5.6284 5.0434-4.529 0-9.3908-2.8747-13.113-6.5766h-1.4021l0.64555 8.6847a33.801 33.801 0 0 0 14.121 3.026c8.3922 0 14.121-5.0434 14.121-11.499 0-5.1039-2.4612-8.5637-8.7957-12.104"></path>
																																																																<path class="phl-letter" d="m379.72 54.307h-14.121v-13.375h10.379a25.409 25.409 0 0 1 5.81 0.69599v-6.506a22.695 22.695 0 0 1-5.81 0.75651h-10.379v-12.316h12.669a21.858 21.858 0 0 1 5.7494 0.75651c-0.17147-1.9367-0.35304-3.9238-0.58503-5.7999h-27.749a14.868 14.868 0 0 1 0.75651 5.2754v35.556h28.455l0.5346-5.81a21.051 21.051 0 0 1-5.699 0.76659"></path>
																																																																	<path class="phl-letter" d="m410.92 36.433-4.9728-2.7234c-4.2869-2.4006-6.1025-3.7523-6.1025-6.2134a4.761 4.761 0 0 1 4.9829-4.6399c4.5693 0 7.7971 1.5836 12.104 6.5665h1.5231l-0.69599-8.4426a27.94 27.94 0 0 0-13.113-3.2278c-8.2207 0-13.496 5.2249-13.496 11.317 0 5.4065 2.8646 8.3922 9.3202 11.912l5.1039 2.8243c4.0347 2.1687 5.346 3.8128 5.346 6.0521 0 2.7033-2.2292 5.0434-5.6385 5.0434-4.5088 0-9.3908-2.8747-13.113-6.5766h-1.3516l0.64555 8.6847a33.801 33.801 0 0 0 14.121 3.026c8.3922 0 14.121-5.0434 14.121-11.499 0-5.1039-2.4612-8.5637-8.7957-12.104"></path></svg>